<?xml version="1.0" standalone="no"?>
<!DOCTYPE svg PUBLIC "-//W3C//DTD SVG 1.0//EN" "http://www.w3.org/TR/2001/REC-SVG-20010904/DTD/svg10.dtd">
<svg xmlns="http://www.w3.org/2000/svg" xmlns:xlink="http://www.w3.org/1999/xlink" id="body_1" width="90" height="90">

<g transform="matrix(2 0 0 2 0 0)">
	<g>
        <path d="M22.5 11.63L22.5 6" stroke="#000000" stroke-width="1.5" fill="none" />
        <path d="M22.5 25C 22.5 25 27 17.5 25.5 14.5C 25.5 14.5 24.5 12 22.5 12C 20.5 12 19.5 14.5 19.5 14.5C 18 17.5 22.5 25 22.5 25" stroke="#000000" stroke-width="1.5" fill="#000000" fill-rule="nonzero" />
        <path d="M11.5 37C 17 40.5 27 40.5 32.5 37L32.5 37L32.5 30C 32.5 30 41.5 25.5 38.5 19.5C 34.5 13 25 16 22.5 23.5L22.5 23.5L22.5 27L22.5 23.5C 19 16 9.5 13 6.5 19.5C 3.5 25.5 11.5 29.5 11.5 29.5L11.5 29.5L11.5 37z" stroke="#000000" stroke-width="1.5" fill="#000000" fill-rule="nonzero" />
        <path d="M20 8L25 8" stroke="#000000" stroke-width="1.5" fill="none" />
        <path d="M32 29.5C 32 29.5 40.5 25.5 38.03 19.85C 34.15 14 25 18 22.5 24.5L22.5 24.5L22.51 26.6L22.5 24.5C 20 18 9.906 14 6.997 19.85C 4.5 25.5 11.85 28.85 11.85 28.85" stroke="#ECECEC" stroke-width="1.5" fill="none" />
        <path d="M11.5 30C 17 27 27 27 32.5 30M11.5 33.5C 17 30.5 27 30.5 32.5 33.5M11.5 37C 17 34 27 34 32.5 37" stroke="#ECECEC" stroke-width="1.5" fill="none" />
	</g>
</g>
</svg>