<?xml version="1.0" standalone="no"?>
<!DOCTYPE svg PUBLIC "-//W3C//DTD SVG 1.0//EN" "http://www.w3.org/TR/2001/REC-SVG-20010904/DTD/svg10.dtd">
<svg xmlns="http://www.w3.org/2000/svg" xmlns:xlink="http://www.w3.org/1999/xlink" id="body_1" width="90" height="90">

<g transform="matrix(2 0 0 2 0 0)">
	<g>
        <path d="M22 10C 32.5 11 38.5 18 38 39L38 39L15 39C 15 30 25 32.5 23 18" stroke="#000000" stroke-width="1.5" fill="#000000" fill-rule="nonzero" />
        <path d="M24 18C 24.38 20.91 18.45 25.369999 16 27C 13 29 13.18 31.34 11 31C 9.958 30.06 12.41 27.96 11 28C 10 28 11.19 29.23 10 30C 9 30 5.997 31 6 26C 6 24 12 14 12 14C 12 14 13.89 12.1 14 10.5C 13.27 9.506 13.5 8.5 13.5 7.5C 14.5 6.5 16.5 10 16.5 10L16.5 10L18.5 10C 18.5 10 19.28 8.008 21 7C 22 7 22 10 22 10" stroke="#000000" stroke-width="1.5" fill="#000000" fill-rule="nonzero" />
        <path d="M9.5 25.5C 9.5 25.678633 9.4047 25.843697 9.25 25.933012C 9.0953 26.02233 8.9047 26.02233 8.75 25.933012C 8.5953 25.843697 8.5 25.678633 8.5 25.5C 8.5 25.321367 8.5953 25.156303 8.75 25.066988C 8.9047 24.97767 9.0953 24.97767 9.25 25.066988C 9.4047 25.156303 9.5 25.321367 9.5 25.5zM14.933001 15.75C 14.664902 16.216732 14.33315 16.601267 14.063678 16.757637C 13.794206 16.914005 13.628329 16.818235 13.629016 16.506678C 13.629703 16.19512 13.796846 15.715546 14.067 15.25C 14.335098 14.783268 14.66685 14.398733 14.936322 14.242363C 15.205794 14.085994 15.371671 14.181766 15.370984 14.493323C 15.370297 14.804881 15.203154 15.284454 14.933001 15.75z" stroke="#ECECEC" stroke-width="1.5" fill="#ECECEC" fill-rule="nonzero" />
        <path d="M24.55 10.4L24.099998 11.849999L24.599998 11.999999C 27.749998 12.999999 30.249998 14.489999 32.5 18.75C 34.75 23.010002 35.75 29.06 35.25 39L35.25 39L35.2 39.5L37.45 39.5L37.5 39C 38 28.939999 36.62 22.15 34.25 17.66C 31.880001 13.17 28.46 11.02 25.060001 10.5L25.060001 10.5L24.550001 10.4L24.55 10.4z" stroke="none" fill="#ECECEC" fill-rule="nonzero" />
	</g>
</g>
</svg>