<?xml version="1.0" standalone="no"?>
<!DOCTYPE svg PUBLIC "-//W3C//DTD SVG 1.0//EN" "http://www.w3.org/TR/2001/REC-SVG-20010904/DTD/svg10.dtd">
<svg xmlns="http://www.w3.org/2000/svg" xmlns:xlink="http://www.w3.org/1999/xlink" id="body_1" width="1000" height="1000">

<g transform="matrix(2 0 0 2 0 0)">
	<g>
        <path d="M9 39L36 39L36 36L9 36L9 39zM12.5 32L14 29.5L31 29.5L32.5 32L12.5 32zM12 36L12 32L33 32L33 36L12 36z" stroke="#000000" stroke-width="1.5" fill="#000000" fill-rule="nonzero" />
        <path d="M14 29.5L14 16.5L31 16.5L31 29.5L14 29.5z" stroke="#000000" stroke-width="1.5" fill="#000000" fill-rule="nonzero" />
        <path d="M14 16.5L11 14L34 14L31 16.5L14 16.5zM11 14L11 9L15 9L15 11L20 11L20 9L25 9L25 11L30 11L30 9L34 9L34 14L11 14z" stroke="#000000" stroke-width="1.5" fill="#000000" fill-rule="nonzero" />
        <path d="M12 35.5L33 35.5zM13 31.5L32 31.5zM14 29.5L31 29.5zM14 16.5L31 16.5zM11 14L34 14" stroke="#ECECEC" stroke-width="1" fill="none" />
	</g>
</g>
</svg>