<?xml version="1.0" standalone="no"?>
<!DOCTYPE svg PUBLIC "-//W3C//DTD SVG 1.0//EN" "http://www.w3.org/TR/2001/REC-SVG-20010904/DTD/svg10.dtd">
<svg xmlns="http://www.w3.org/2000/svg" xmlns:xlink="http://www.w3.org/1999/xlink" id="body_1" width="90" height="90">

<g transform="matrix(2 0 0 2 0 0)">
    <path d="M22.5 9C 20.29 9 18.5 10.79 18.5 13C 18.5 13.89 18.79 14.71 19.28 15.38C 17.33 16.5 16 18.59 16 21C 16 23.03 16.94 24.84 18.41 26.03C 15.41 27.09 11 31.580002 11 39.5L11 39.5L34 39.5C 34 31.58 29.59 27.09 26.59 26.029999C 28.06 24.839998 29 23.029999 29 20.999998C 29 18.589998 27.67 16.499998 25.72 15.379998C 26.21 14.709998 26.5 13.889998 26.5 12.999998C 26.5 10.789998 24.71 8.999998 22.5 8.999998L22.5 8.999998L22.5 9z" stroke="#000000" stroke-width="1.5" stroke-linecap="square" fill="#FFFFFF" fill-rule="nonzero" />
</g>
</svg>